<?xml version="1.0" encoding="UTF-8"?>
<svg width="20px" height="18px" viewBox="0 0 20 18" version="1.1" xmlns="http://www.w3.org/2000/svg"
     xmlns:xlink="http://www.w3.org/1999/xlink">
    <!-- Generator: Sketch 44.1 (41455) - http://www.bohemiancoding.com/sketch -->
    <title>icon-mydojo-filled</title>
    <desc>Created with Sketch.</desc>
    <defs>
        <path d="M18.5627,12.4173 L5.4377,12.4173 L5.4377,9.0533 C7.5807,9.4243 9.8017,9.6253 12.0007,9.6253 C14.1977,9.6253 16.4197,9.4243 18.5627,9.0533 L18.5627,12.4173 Z M21.5837,3.8233 C21.4897,3.3283 21.1437,3.0003 20.7567,3.0003 C20.6997,3.0003 20.6417,3.0073 20.5837,3.0223 C18.1247,3.6513 15.2427,4.0473 12.0007,4.0473 C8.7567,4.0473 5.8757,3.6513 3.4167,3.0223 C3.3587,3.0073 3.2997,3.0003 3.2437,3.0003 C2.8567,3.0003 2.5107,3.3283 2.4177,3.8233 L2.0237,7.1623 C1.9127,7.7533 2.2037,8.3533 2.6727,8.4753 C3.2497,8.6243 3.8427,8.7463 4.4377,8.8663 L4.4377,21.0003 L5.4377,21.0003 L5.4377,13.4173 L18.5627,13.4173 L18.5627,21.0003 L19.5627,21.0003 L19.5627,8.8663 C20.1577,8.7463 20.7517,8.6243 21.3267,8.4753 C21.7967,8.3533 22.0877,7.7533 21.9757,7.1623 L21.5837,3.8233 Z"
              id="path-1"></path>
    </defs>
    <g id="Symbols" stroke="none" stroke-width="1" fill="none" fill-rule="evenodd">
        <g id="Icons/MyDojo-Fill" transform="translate(-2.000000, -3.000000)">
            <mask id="mask-2" fill="white">
                <use xlink:href="#path-1"></use>
            </mask>
            <use id="icon-mydojo-filled" fill="#FFFFFF" xlink:href="#path-1"></use>
        </g>
    </g>
</svg>