<?xml version="1.0" encoding="UTF-8"?>
<svg width="21px" height="20px" viewBox="0 0 21 20" version="1.1" xmlns="http://www.w3.org/2000/svg" xmlns:xlink="http://www.w3.org/1999/xlink">
    <!-- Generator: Sketch 44.1 (41455) - http://www.bohemiancoding.com/sketch -->
    <title>icon-statistics</title>
    <desc>Created with Sketch.</desc>
    <defs>
        <path d="M6.2002,14.4902 C6.8632,14.4902 7.4002,15.0272 7.4002,15.6902 C7.4002,16.3522 6.8632,16.8892 6.2002,16.8892 C5.5372,16.8892 5.0002,16.3522 5.0002,15.6902 C5.0002,15.0272 5.5372,14.4902 6.2002,14.4902 L6.2002,14.4902 Z M10.3002,8.6702 C10.9632,8.6702 11.5002,9.2072 11.5002,9.8702 C11.5002,10.5322 10.9632,11.0702 10.3002,11.0702 C9.6372,11.0702 9.1002,10.5322 9.1002,9.8702 C9.1002,9.2072 9.6372,8.6702 10.3002,8.6702 L10.3002,8.6702 Z M15.9002,11.8202 C16.5622,11.8202 17.0992,12.3572 17.0992,13.0192 C17.0992,13.6822 16.5622,14.2192 15.9002,14.2192 C15.2372,14.2192 14.7002,13.6822 14.7002,13.0192 C14.7052,12.3572 15.2472,11.8242 15.9102,11.8302 L15.9002,11.8202 Z M19.8002,5.2702 C20.4632,5.2702 21.0002,5.8072 21.0002,6.4702 C21.0002,7.1332 20.4632,7.6702 19.8002,7.6702 C19.1382,7.6702 18.5992,7.1332 18.5992,6.4702 C18.5992,5.8072 19.1382,5.2702 19.8002,5.2702 L19.8002,5.2702 Z M6.2002,17.8802 L6.1802,17.8802 C5.9152,17.8772 5.6542,17.8262 5.4082,17.7302 C4.2812,17.2902 3.7242,16.0202 4.1632,14.8932 C4.6032,13.7672 5.8732,13.2102 7.0002,13.6502 L8.6702,11.3102 C8.2972,10.8982 8.0932,10.3612 8.1002,9.8052 C8.1152,8.5902 9.1132,7.6172 10.3272,7.6332 C11.5422,7.6482 12.5152,8.6452 12.5002,9.8602 C12.4962,10.0672 12.4622,10.2722 12.4002,10.4702 L14.2902,11.5402 C14.8562,10.9012 15.7522,10.6642 16.5592,10.9402 L18.2802,8.0002 C17.8602,7.5732 17.6322,6.9932 17.6462,6.3942 C17.6782,5.1742 18.6912,4.2102 19.9122,4.2412 C21.1322,4.2722 22.0962,5.2862 22.0652,6.5072 C22.0342,7.7272 21.0202,8.6912 19.8002,8.6602 C19.5752,8.6572 19.3522,8.6202 19.1392,8.5502 L17.4202,11.4402 C17.8562,11.8572 18.1022,12.4362 18.0992,13.0412 C18.0942,14.2562 17.1042,15.2362 15.8892,15.2302 C14.6752,15.2242 13.6942,14.2352 13.7002,13.0192 C13.7042,12.8132 13.7372,12.6072 13.8002,12.4102 L11.9102,11.3402 C11.2962,12.0162 10.3252,12.2362 9.4802,11.8902 L7.8302,14.2302 C8.1882,14.6312 8.3872,15.1492 8.3882,15.6872 C8.3892,16.8972 7.4092,17.8792 6.2002,17.8802 Z M2,2.0002 L3,2.0002 L3,21.0002 L22,21.0002 L22,22.0002 L2,22.0002 L2,2.0002 Z" id="path-1"></path>
    </defs>
    <g id="Symbols" stroke="none" stroke-width="1" fill="none" fill-rule="evenodd">
        <g id="Icons/Statistics-8" transform="translate(-2.000000, -2.000000)">
            <mask id="mask-2" fill="white">
                <use xlink:href="#path-1"></use>
            </mask>
            <use id="icon-statistics" fill="#FFFFFF" xlink:href="#path-1"></use>
        </g>
    </g>
</svg>