<?xml version="1.0" encoding="UTF-8"?>
<svg width="20px" height="20px" viewBox="0 0 20 20" version="1.1" xmlns="http://www.w3.org/2000/svg" xmlns:xlink="http://www.w3.org/1999/xlink">
    <!-- Generator: Sketch 44.1 (41455) - http://www.bohemiancoding.com/sketch -->
    <title>icons-habit-filled-2</title>
    <desc>Created with Sketch.</desc>
    <defs>
        <path d="M10.8771583,7.97418874 C11.1531583,7.97418874 11.3771583,8.19918874 11.3771583,8.47518874 L11.3771583,12.2221887 L15.4651583,14.3761887 C15.7091583,14.5051887 15.8031583,14.8071887 15.6741583,15.0521887 C15.5841583,15.2231887 15.4101583,15.3201887 15.2311583,15.3201887 C15.1521583,15.3201887 15.0721583,15.3011887 14.9981583,15.2621887 L10.6441583,12.9661887 C10.4801583,12.8791887 10.3771583,12.7091887 10.3771583,12.5241887 L10.3771583,8.47518874 C10.3771583,8.19918874 10.6011583,7.97418874 10.8771583,7.97418874 Z M20.7697583,12.0395887 C21.5837583,12.1875887 22.1237583,12.9695887 21.9757583,13.7855887 C21.5477583,16.1335887 20.2847583,18.2565887 18.4197583,19.7625887 C16.5567583,21.2685887 14.3107583,21.9995887 12.0777583,21.9995887 C9.15375825,21.9995887 6.25175825,20.7435887 4.26575825,18.3205887 C2.56675825,16.2505887 1.78075825,13.6455887 2.05275825,10.9865887 C2.32575825,8.32358874 3.62575825,5.92658874 5.71675825,4.23658874 C9.21275825,1.41258874 14.0597583,1.31058874 17.6317583,3.66058874 L17.6307583,3.52358874 C17.6217583,2.69458874 18.2857583,2.01558874 19.1137583,2.00558874 C19.9397583,1.95458874 20.6217583,2.65958874 20.6307583,3.48858874 L20.6767583,7.43558874 C20.6817583,7.83358874 20.5277583,8.21758874 20.2497583,8.50258874 C19.9717583,8.78658874 19.5917583,8.94858874 19.1937583,8.95358874 L15.2487583,8.99858874 L15.2317583,8.99858874 C14.4107583,8.99858874 13.7417583,8.33858874 13.7317583,7.51458874 C13.7217583,6.68558874 14.3857583,6.00658874 15.2147583,5.99658874 L15.6857583,5.99158874 C13.2057583,4.52758874 9.96475825,4.66158874 7.60175825,6.57258874 C6.13775825,7.75458874 5.22775825,9.43158874 5.03775825,11.2925887 C4.84675825,13.1485887 5.39675825,14.9685887 6.58375825,16.4165887 C9.04575825,19.4205887 13.5107583,19.8715887 16.5357583,17.4275887 C17.8407583,16.3715887 18.7247583,14.8875887 19.0247583,13.2455887 C19.1727583,12.4305887 19.9637583,11.8915887 20.7697583,12.0395887 Z" id="path-1"></path>
    </defs>
    <g id="Symbols" stroke="none" stroke-width="1" fill="none" fill-rule="evenodd">
        <g id="Icons/Habit-Fill-2" transform="translate(-2.000000, -2.000000)">
            <mask id="mask-2" fill="white">
                <use xlink:href="#path-1"></use>
            </mask>
            <use id="icons-habit-filled-2" fill="#79bf51" xlink:href="#path-1"></use>
        </g>
    </g>
</svg>