<?xml version="1.0" encoding="UTF-8"?>
<svg width="20px" height="20px" viewBox="0 0 20 20" version="1.1" xmlns="http://www.w3.org/2000/svg"
     xmlns:xlink="http://www.w3.org/1999/xlink">
    <!-- Generator: Sketch 45 (43475) - http://www.bohemiancoding.com/sketch -->
    <title>icons-notes</title>
    <desc>Created with Sketch.</desc>
    <defs>
        <path d="M3.414,2 L3.414,6.75 L2,6.75 L2,7.75 L3.414,7.75 L3.414,11.499 L2,11.499 L2,12.499 L3.414,12.499 L3.414,16.25 L2,16.25 L2,17.25 L3.414,17.25 L3.414,22 L22,22 L22,2 L3.414,2 Z M4.414,3 L21,3 L21,21 L4.414,21 L4.414,17.25 L6.093,17.25 L6.093,16.25 L4.414,16.25 L4.414,12.499 L6.093,12.499 L6.093,11.499 L4.414,11.499 L4.414,7.75 L6.093,7.75 L6.093,6.75 L4.414,6.75 L4.414,3 Z"
              id="path-1"></path>
    </defs>
    <g id="Symbols" stroke="none" stroke-width="1" fill="none" fill-rule="evenodd">
        <g id="Icons/Notes-3" transform="translate(-2.000000, -2.000000)">
            <mask id="mask-2" fill="white">
                <use xlink:href="#path-1"></use>
            </mask>
            <use id="icons-notes" fill="#FFFFFF" xlink:href="#path-1"></use>
        </g>
    </g>
</svg>