<svg xmlns="http://www.w3.org/2000/svg" viewBox="0 0 66 82">
    <title>Asset 143</title>
    <g id="Layer_2" data-name="Layer 2">
        <g id="Layer_1-2" data-name="Layer 1">
            <path d="M48.75,42.87c2.09,6,4.47,12.78,7.28,15.42a10.11,10.11,0,0,0,7,2.92A8.66,8.66,0,0,0,66,60.73l-.73-1.86a7.81,7.81,0,0,1-7.87-2c-2.45-2.3-4.84-9.13-6.76-14.62-1-2.82-1.92-5.48-2.76-7.31a21.42,21.42,0,0,0-4.41-6.36,11,11,0,0,0-3.27-2.36,11.35,11.35,0,0,0-5.63-1.49H31.43a11.35,11.35,0,0,0-5.63,1.49,11,11,0,0,0-3.28,2.36,21.44,21.44,0,0,0-4.41,6.36c-.85,1.82-1.78,4.48-2.76,7.3C13.44,47.69,11,54.53,8.6,56.83a7.81,7.81,0,0,1-7.87,2L0,60.73a8.67,8.67,0,0,0,2.94.47,10.11,10.11,0,0,0,7-2.92c2.81-2.64,5.18-9.43,7.28-15.42,1-2.77,1.88-5.39,2.69-7.12l0-.08c0,.19,0,.39,0,.58V57.19C17,59.59,4,70.52,3.83,75.47a5.8,5.8,0,0,0,2,5.09c2.68,2.08,8,1.9,16.63-.58,3.9-1.12,7.46-2.14,10.54-3,3.09.9,6.64,1.93,10.55,3a43.1,43.1,0,0,0,11.23,2,8.63,8.63,0,0,0,5.4-1.43,5.8,5.8,0,0,0,2-5.09C62,70.52,49,59.59,46.05,57.19V36.25c0-.2,0-.39,0-.58l0,.08C46.87,37.48,47.78,40.09,48.75,42.87ZM22,36.25a9.53,9.53,0,0,1,9.48-9.56h3.13A9.53,9.53,0,0,1,44,36.25V56.62H22ZM60.17,75.54c.06,1.66-.34,2.75-1.23,3.45-2.07,1.61-7.07,1.3-14.84-.92L36.56,75.9c5.77-1.7,9.21-2.76,9.27-2.77l-.59-1.91c-.07,0-4.7,1.44-12.24,3.65-7.53-2.21-12.17-3.63-12.24-3.65l-.59,1.91c.06,0,3.5,1.07,9.27,2.77L21.9,78.07C14.13,80.29,9.13,80.6,7.06,79c-.89-.69-1.28-1.79-1.23-3.45.11-3.23,9.47-12,15.53-16.93H44.63C50.7,63.55,60.06,72.31,60.17,75.54Z"/>
            <path d="M33,21.27A10.64,10.64,0,1,0,22.43,10.64,10.62,10.62,0,0,0,33,21.27ZM33,2a8.64,8.64,0,1,1-8.56,8.64A8.61,8.61,0,0,1,33,2Z"/>
        </g>
    </g>
</svg>